<svg width="536" height="332" fill="none" xmlns="http://www.w3.org/2000/svg"><g filter="url(#filter0_b_315_135)"><path d="M57.498 21.726C59.654 10.1 70.987.674 82.812.674H514.3c11.825 0 19.663 9.426 17.508 21.052l-53.522 288.692c-2.155 11.626-13.488 21.052-25.313 21.052H21.485c-11.825 0-19.663-9.426-17.508-21.052L57.498 21.726z" fill="url(#paint0_linear_315_135)" fill-opacity=".15"/><path d="M82.52 2.253h431.488l.585-3.158H83.105l-.586 3.158zm447.683 19.473l-53.521 288.692h3.211l53.521-288.692h-3.211zm-76.936 308.165H21.777l-.585 3.157h431.489l.586-3.157zM5.583 310.418L59.104 21.726h-3.212L2.372 310.418h3.211zm16.195 19.473c-10.938 0-18.189-8.719-16.195-19.473H2.371c-2.317 12.498 6.11 22.63 18.821 22.63l.586-3.157zm454.904-19.473c-1.994 10.754-12.477 19.473-23.415 19.473l-.586 3.157c12.712 0 24.895-10.132 27.212-22.63h-3.211zM514.008 2.253c10.938 0 18.189 8.719 16.195 19.473h3.211c2.317-12.498-6.109-22.63-18.821-22.63l-.585 3.157zM83.104-.905c-12.711 0-24.894 10.133-27.212 22.631h3.212C61.098 10.972 71.581 2.253 82.52 2.253l.585-3.158z" fill="url(#paint1_linear_315_135)" fill-opacity=".3"/></g><defs><linearGradient id="paint0_linear_315_135" x1="63.312" y1="-9.631" x2="240.053" y2="569.976" gradientUnits="userSpaceOnUse"><stop stop-color="#fff" stop-opacity="0"/><stop offset="1" stop-color="#fff"/></linearGradient><linearGradient id="paint1_linear_315_135" x1="49.828" y1="-27.665" x2="219.298" y2="454.127" gradientUnits="userSpaceOnUse"><stop stop-color="#fff"/><stop offset="1" stop-color="#fff" stop-opacity="0"/></linearGradient><filter id="filter0_b_315_135" x="-26.689" y="-26.089" width="589.164" height="384.322" filterUnits="userSpaceOnUse" color-interpolation-filters="sRGB"><feFlood flood-opacity="0" result="BackgroundImageFix"/><feGaussianBlur in="BackgroundImage" stdDeviation="13.382"/><feComposite in2="SourceAlpha" operator="in" result="effect1_backgroundBlur_315_135"/><feBlend in="SourceGraphic" in2="effect1_backgroundBlur_315_135" result="shape"/></filter></defs></svg>