<svg width="60" height="61" fill="none" xmlns="http://www.w3.org/2000/svg"><path d="M41.815 33.843a12.435 12.435 0 01-3.039 5.684l11.87 12.051 4.319-4.384-13.15-13.351z" fill="#52FF00"/><path d="M37.639 1.605L31.739 0l-4.971 18.839L22.279 1.83l-5.9 1.605 4.85 18.375L9.15 9.548l-4.319 4.384 13.25 13.453-16.5-4.49L0 28.886l18.028 4.905a12.627 12.627 0 01-.316-2.813c0-6.85 5.47-12.403 12.216-12.403 6.746 0 12.215 5.553 12.215 12.403 0 .961-.108 1.897-.312 2.796l16.384 4.457 1.581-5.99-18.1-4.924 16.501-4.489-1.58-5.99-18.1 4.924 12.08-12.264-4.32-4.385-13.065 13.266L37.64 1.605zm1.018 38.048a12.169 12.169 0 01-5.459 3.277l4.32 16.366 5.899-1.605-4.76-18.038zm-5.679 3.337a12.06 12.06 0 01-3.05.39c-1.129 0-2.221-.156-3.258-.447l-4.323 16.381 5.9 1.605 4.73-17.93zm-6.517-.117a12.183 12.183 0 01-5.363-3.325L9.2 51.628l4.319 4.386L26.46 42.873zM21 39.44a12.434 12.434 0 01-2.964-5.613L1.6 38.299l1.58 5.99L21 39.44z" fill="#52FF00"/></svg>