<svg width="597" height="662" fill="none" xmlns="http://www.w3.org/2000/svg"><g filter="url(#filter0_b_142_7918)"><path d="M118.783 21.875C120.938 10.25 132.271.823 144.096.823h431.489c11.825 0 19.663 9.426 17.508 21.052L478.391 640.577c-2.156 11.626-13.489 21.052-25.314 21.052H21.588c-11.825 0-19.663-9.426-17.508-21.052L118.783 21.875z" fill="url(#paint0_linear_142_7918)" fill-opacity=".15"/><path d="M143.804 2.402h431.488l.586-3.158H144.389l-.585 3.158zm447.683 19.473L476.785 640.577h3.211L594.699 21.875h-3.212zM453.37 660.05H21.88l-.584 3.158h431.488l.586-3.158zM5.686 640.577L120.388 21.875h-3.211L2.475 640.577h3.211zm16.195 19.473c-10.938 0-18.189-8.719-16.195-19.473H2.475c-2.318 12.498 6.109 22.631 18.82 22.631l.586-3.158zm454.904-19.473c-1.994 10.754-12.477 19.473-23.415 19.473l-.586 3.158c12.712 0 24.895-10.133 27.212-22.631h-3.211zM575.292 2.402c10.938 0 18.189 8.719 16.195 19.473h3.212c2.317-12.498-6.109-22.63-18.821-22.63l-.586 3.157zM144.389-.756c-12.712 0-24.895 10.133-27.212 22.631h3.211c1.994-10.754 12.478-19.473 23.416-19.473l.585-3.158z" fill="url(#paint1_linear_142_7918)" fill-opacity=".3"/></g><defs><linearGradient id="paint0_linear_142_7918" x1="126.502" y1="-19.762" x2="644.897" y2="879.255" gradientUnits="userSpaceOnUse"><stop stop-color="#fff" stop-opacity="0"/><stop offset="1" stop-color="#fff"/></linearGradient><linearGradient id="paint1_linear_142_7918" x1="116.354" y1="-55.788" x2="583.127" y2="651.721" gradientUnits="userSpaceOnUse"><stop stop-color="#fff"/><stop offset="1" stop-color="#fff" stop-opacity="0"/></linearGradient><filter id="filter0_b_142_7918" x="-26.586" y="-25.94" width="650.345" height="714.332" filterUnits="userSpaceOnUse" color-interpolation-filters="sRGB"><feFlood flood-opacity="0" result="BackgroundImageFix"/><feGaussianBlur in="BackgroundImage" stdDeviation="13.382"/><feComposite in2="SourceAlpha" operator="in" result="effect1_backgroundBlur_142_7918"/><feBlend in="SourceGraphic" in2="effect1_backgroundBlur_142_7918" result="shape"/></filter></defs></svg>